<?xml version="1.0" standalone="no"?>
<!DOCTYPE svg PUBLIC "-//W3C//DTD SVG 20010904//EN"
 "http://www.w3.org/TR/2001/REC-SVG-20010904/DTD/svg10.dtd">
<svg version="1.0" xmlns="http://www.w3.org/2000/svg"
 width="1024.000000pt" height="1024.000000pt" viewBox="0 0 1024.000000 1024.000000"
 preserveAspectRatio="xMidYMid meet">

<g transform="translate(0.000000,1024.000000) scale(0.100000,-0.100000)"
fill="#000000" stroke="none">
<path d="M4990 7840 c-239 -26 -488 -87 -681 -165 -228 -93 -477 -231 -615
-342 -351 -279 -553 -527 -745 -916 -105 -212 -113 -271 -48 -336 42 -42 84
-42 141 2 36 28 48 46 74 117 63 169 114 265 248 467 93 139 298 348 462 469
309 229 685 389 1031 441 149 22 550 25 693 4 484 -68 951 -317 1301 -693 208
-223 337 -418 438 -663 40 -97 61 -127 105 -154 58 -37 108 -24 148 36 26 40
22 83 -14 176 -178 453 -528 880 -956 1164 -190 126 -372 210 -662 306 -63 21
-270 65 -360 77 -103 14 -469 21 -560 10z"/>
<path d="M5163 6661 c-58 -42 -77 -74 -77 -131 0 -86 71 -170 144 -170 72 0
150 87 150 167 0 80 -57 146 -135 158 -34 6 -46 2 -82 -24z"/>
<path d="M3701 5719 c-79 -14 -183 -72 -241 -135 -154 -170 -156 -431 -3 -595
99 -106 196 -149 336 -149 125 0 233 34 325 103 l33 25 -64 68 c-63 67 -65 68
-83 49 -10 -10 -42 -29 -71 -42 -103 -48 -245 -27 -320 46 -39 37 -85 116 -75
126 3 3 146 5 318 5 l312 0 7 41 c15 87 -19 222 -77 306 -79 116 -243 179
-397 152z m170 -192 c49 -26 109 -97 109 -130 0 -22 -1 -22 -215 -22 -150 0
-215 3 -215 11 0 17 52 90 80 112 76 59 164 69 241 29z"/>
<path d="M4725 5717 c-62 -21 -97 -42 -135 -82 l-35 -36 -5 58 -5 58 -85 0
-85 0 -3 -419 c-1 -232 2 -424 7 -429 13 -13 154 -20 171 -8 12 8 15 38 15
158 0 81 2 203 3 270 l2 123 38 42 c47 52 108 80 179 80 45 1 62 -5 95 -28 78
-55 83 -74 86 -368 1 -173 6 -263 13 -272 8 -10 37 -14 95 -14 l84 0 0 305 c0
277 -2 309 -19 355 -31 80 -81 134 -166 176 -85 42 -180 54 -250 31z"/>
<path d="M5591 5715 c-30 -9 -70 -25 -88 -37 -47 -29 -110 -111 -124 -161 -23
-85 23 -202 99 -254 35 -23 131 -61 225 -89 105 -31 136 -88 75 -139 -30 -25
-37 -27 -103 -23 -71 5 -168 40 -207 75 -16 14 -21 11 -72 -43 -30 -33 -55
-64 -56 -71 0 -20 82 -82 137 -103 121 -45 271 -49 361 -10 58 26 145 116 160
167 46 154 -35 258 -258 329 -149 48 -188 84 -164 149 24 61 165 57 290 -8
l29 -15 48 59 c26 33 47 64 47 69 0 16 -79 68 -136 89 -74 28 -194 35 -263 16z"/>
<path d="M6490 5714 c-77 -21 -152 -69 -220 -141 -73 -78 -102 -147 -108 -260
-11 -223 130 -411 347 -459 188 -42 346 22 464 190 65 91 82 144 82 256 0 89
-2 100 -36 170 -39 82 -112 163 -182 204 -91 53 -235 70 -347 40z m215 -198
c164 -76 204 -274 81 -404 -112 -119 -300 -101 -392 37 -36 54 -52 153 -35
214 40 141 211 217 346 153z"/>
<path d="M7551 5715 c-133 -37 -269 -152 -311 -260 -34 -88 -39 -213 -12 -302
61 -201 246 -326 456 -310 89 7 162 34 248 93 77 53 78 46 -13 125 l-58 50
-36 -26 c-49 -38 -100 -54 -171 -55 -111 0 -208 69 -239 172 -19 65 -19 124 0
177 23 67 51 98 120 132 57 28 72 31 133 27 54 -3 84 -11 136 -38 65 -32 68
-33 79 -15 5 10 28 38 50 62 24 26 37 49 33 58 -8 21 -89 71 -156 96 -72 27
-188 34 -259 14z"/>
<path d="M2498 5710 c-25 -15 -25 -125 -1 -159 l16 -24 194 5 c137 4 193 2
193 -6 0 -6 -42 -64 -93 -128 -50 -64 -132 -169 -182 -232 -49 -64 -105 -134
-122 -157 -43 -53 -46 -108 -7 -138 26 -20 38 -21 365 -21 338 0 338 0 353 22
18 25 21 103 6 142 l-10 26 -220 0 c-121 0 -220 2 -220 6 0 14 118 178 195
272 17 20 39 50 49 66 11 17 47 63 80 103 141 169 139 166 109 201 -17 20 -31
21 -353 27 -236 4 -340 3 -352 -5z"/>
<path d="M7363 4559 c-59 -29 -83 -61 -133 -175 -181 -417 -595 -830 -1052
-1049 -299 -143 -606 -209 -978 -208 -270 1 -507 42 -765 134 -516 184 -1017
629 -1239 1101 -57 121 -91 170 -137 193 -92 48 -200 -36 -171 -133 14 -46
166 -319 233 -418 105 -156 331 -406 483 -533 371 -310 803 -503 1273 -567
160 -22 484 -25 633 -5 131 17 321 54 413 82 131 39 391 149 507 215 284 163
527 364 704 584 172 215 406 611 406 689 0 36 -19 74 -50 98 -23 19 -80 15
-127 -8z"/>
<path d="M5170 4227 c-20 -7 -48 -30 -68 -57 -30 -40 -34 -50 -29 -93 6 -63
48 -117 106 -136 41 -13 45 -12 98 15 38 20 62 40 74 64 26 48 25 120 -2 154
-39 50 -118 74 -179 53z"/>
</g>
</svg>
