<svg width="793" height="199" viewBox="0 0 793 199" fill="none" xmlns="http://www.w3.org/2000/svg">
<path d="M4.32 119V114.104L50.976 55.256L51.744 57.944H4.992V51.8H58.272V56.696L11.712 115.544L10.848 112.856H59.424V119H4.32ZM92.037 119.48C86.789 119.48 82.181 118.392 78.213 116.216C74.245 113.976 71.141 110.936 68.901 107.096C66.661 103.192 65.541 98.744 65.541 93.752C65.541 88.76 66.597 84.344 68.709 80.504C70.885 76.664 73.829 73.656 77.541 71.48C81.317 69.24 85.541 68.12 90.213 68.12C94.949 68.12 99.141 69.208 102.789 71.384C106.501 73.496 109.413 76.504 111.525 80.408C113.637 84.248 114.693 88.696 114.693 93.752C114.693 94.072 114.661 94.424 114.597 94.808C114.597 95.128 114.597 95.48 114.597 95.864H70.725V90.776H110.949L108.261 92.792C108.261 89.144 107.461 85.912 105.861 83.096C104.325 80.216 102.213 77.976 99.525 76.376C96.837 74.776 93.733 73.976 90.213 73.976C86.757 73.976 83.653 74.776 80.901 76.376C78.149 77.976 76.005 80.216 74.469 83.096C72.933 85.976 72.165 89.272 72.165 92.984V94.04C72.165 97.88 72.997 101.272 74.661 104.216C76.389 107.096 78.757 109.368 81.765 111.032C84.837 112.632 88.325 113.432 92.229 113.432C95.301 113.432 98.149 112.888 100.773 111.8C103.461 110.712 105.765 109.048 107.685 106.808L111.525 111.224C109.285 113.912 106.469 115.96 103.077 117.368C99.749 118.776 96.069 119.48 92.037 119.48ZM154.295 68.12C158.391 68.12 161.975 68.92 165.047 70.52C168.183 72.056 170.615 74.424 172.343 77.624C174.135 80.824 175.031 84.856 175.031 89.72V119H168.215V90.392C168.215 85.08 166.871 81.08 164.183 78.392C161.559 75.64 157.847 74.264 153.047 74.264C149.463 74.264 146.327 75 143.639 76.472C141.015 77.88 138.967 79.96 137.495 82.712C136.087 85.4 135.383 88.664 135.383 92.504V119H128.567V68.6H135.095V82.424L134.039 79.832C135.639 76.184 138.199 73.336 141.719 71.288C145.239 69.176 149.431 68.12 154.295 68.12Z" fill="#424242"/>
<path d="M241.765 59.91C250.125 56.775 266.655 33.975 266.655 22.955C266.655 21.625 266.37 20.58 265.99 19.63C264.755 17.255 262 16.21 258.295 16.21C240.15 16.21 198.16 40.72 189.42 55.255C188.565 56.68 188.185 58.105 188.185 59.53C188.185 72.07 218.015 85.845 226.755 97.815C235.685 95.345 239.01 94.49 249.84 92.02H250.03C250.6 92.02 250.885 92.305 250.885 92.685C250.885 93.065 250.6 93.445 250.125 93.54C239.485 95.915 236.73 97.055 227.895 99.43C231.505 106.365 233.215 112.445 233.215 117.67C233.215 130.59 222.86 138.475 207.28 143.32C196.26 146.645 184.955 148.26 175.36 148.26C160.16 148.26 148.95 144.365 148.95 137.62C148.95 135.245 150.28 132.395 153.51 129.355C162.25 120.71 179.16 111.115 216.59 100.38C207.85 89.455 194.075 84.61 184.86 72.355C182.01 68.84 180.11 64.755 180.11 60.575C180.11 55.825 182.58 50.695 188.85 45.85C202.34 34.64 238.44 14.69 257.82 14.69C262.76 14.69 266.56 15.925 268.745 19.06C270.36 21.435 271.12 24.095 271.12 26.945C271.12 41.385 252.69 60.29 242.43 61.05C242.05 61.24 241.86 61.24 241.67 61.24C241.29 61.24 241.195 61.05 241.195 60.86C241.195 60.575 241.385 60.195 241.765 59.91ZM218.3 102.66C180.87 113.395 164.435 121.945 155.79 130.4C152.94 133.155 151.705 135.435 151.705 137.43C151.705 142.655 160.35 145.315 171.655 145.315C193.03 145.315 223.81 136.005 223.81 117.29C223.81 112.92 222.195 108.075 218.3 102.66ZM261.314 86.985C262.739 85.655 263.974 85.18 265.114 85.18C266.444 85.18 267.394 86.035 267.489 87.365L267.584 88.125C267.584 90.12 266.919 91.355 266.919 91.355C266.919 91.355 267.489 93.54 271.099 93.54H271.669C275.849 93.35 278.129 91.545 279.459 90.975C279.744 90.88 279.839 90.88 280.029 90.88C280.219 90.88 280.219 90.975 280.219 91.07C280.219 91.45 279.839 92.02 279.839 92.02C276.419 94.585 272.904 95.155 270.244 95.155C267.774 95.155 265.969 94.585 265.969 94.585C265.969 94.585 264.164 100.57 260.364 105.795C257.039 110.355 252.669 112.92 248.869 112.92C247.064 112.92 245.449 112.35 244.024 111.115C242.789 109.975 242.219 108.17 242.219 106.175C242.219 101.805 244.879 95.915 247.729 91.83C252.099 85.94 256.374 82.805 258.749 82.805H259.034C261.314 82.995 261.314 86.985 261.314 86.985ZM259.509 89.36C256.754 90.595 250.199 98.955 248.584 105.32C248.394 106.08 248.394 106.745 248.394 107.22C248.394 108.74 248.964 109.31 250.009 109.31C251.624 109.31 254.189 107.79 256.564 105.32C261.314 100.57 263.499 93.16 263.499 93.16C263.499 93.16 259.699 91.165 259.509 89.36ZM295.584 87.84C295.584 87.84 295.204 87.65 294.539 87.65C293.399 87.65 291.499 88.125 288.649 90.405C285.039 93.255 281.334 98.955 281.334 103.135C281.334 104.655 281.809 105.89 282.854 106.745C283.424 107.315 284.374 107.505 285.514 107.505C291.784 107.505 304.894 100.19 313.729 93.16C313.729 93.16 314.014 92.875 314.299 92.875C314.489 92.875 314.584 92.97 314.584 93.255V93.54C314.299 94.775 296.629 109.5 285.229 111.78C284.374 111.97 283.519 112.065 282.759 112.065C276.964 112.065 273.734 107.6 273.734 101.9C273.734 98.29 275.064 94.11 278.009 90.215C284.659 81.095 290.929 79.005 295.204 79.005C295.964 79.005 296.724 79.1 297.389 79.195C300.239 79.86 300.999 81.76 300.999 83.85C300.999 84.61 300.904 85.465 300.809 86.225C300.144 88.98 299.384 90.215 298.149 90.405H297.864C296.819 90.405 295.584 89.075 295.584 87.84Z" fill="#F5F5F5"/>
</svg>
